<?xml version="1.0" encoding="utf-8"?>
<svg version="1.1" xmlns="http://www.w3.org/2000/svg" xmlns:xlink="http://www.w3.org/1999/xlink" x="0px" y="0px"
	 viewBox="-250 550 500 500" enable-background="new -250 550 500 500" xml:space="preserve">
<path fill="#e0e0e0" d="M0,550c-138.1,0-250,111.9-250,250s111.9,250,250,250s250-111.9,250-250S138.1,550,0,550z M85.4,965.9
	c-22.1,10.4-73.7,40.4-156.8-125.2c-82.4-164.2-27.3-189.7-7-200.5c0.5-0.3,29.7-14.9,29.8-14.9l49.3,98.1l-29.4,14.7
	c-30.9,16.9,33.5,145.1,65.1,129.5c1.3-0.6,29.1-14.5,29.2-14.6l49.7,97.9C115.2,951.1,87.2,965,85.4,965.9z"/>
</svg>
