<?xml version="1.0" standalone="no"?>
<!DOCTYPE svg PUBLIC "-//W3C//DTD SVG 20010904//EN"
 "http://www.w3.org/TR/2001/REC-SVG-20010904/DTD/svg10.dtd">
<svg version="1.0" xmlns="http://www.w3.org/2000/svg"
 width="520.000000pt" height="520.000000pt" viewBox="0 0 520.000000 520.000000"
 preserveAspectRatio="xMidYMid meet">
<metadata>
Created by potrace 1.11, written by Peter Selinger 2001-2013
</metadata>
<g transform="translate(0.000000,520.000000) scale(0.100000,-0.100000)"
fill="#000000" stroke="none">
<path d="M870 5179 c-273 -52 -518 -178 -706 -363 -50 -50 -99 -106 -108 -124
-16 -30 -17 -87 -14 -676 l3 -643 50 -59 c111 -130 244 -232 410 -314 121 -59
249 -105 266 -94 5 3 9 1 9 -4 0 -5 17 -12 38 -15 20 -3 48 -8 62 -11 138 -31
375 -23 544 18 53 13 96 19 96 14 0 -5 4 -7 9 -4 4 3 7 -10 6 -29 -5 -108 115
-167 182 -89 l23 27 0 -99 c0 -97 -1 -101 -35 -151 -140 -209 -203 -519 -152
-753 31 -138 85 -272 156 -380 l36 -55 1 -162 c0 -134 -2 -158 -11 -136 -26
60 -84 82 -141 55 -59 -27 -60 -41 -58 -427 1 -192 4 -360 7 -372 20 -80 102
-177 187 -220 54 -27 58 -28 230 -28 172 0 176 0 230 28 69 36 136 105 169
177 27 60 27 54 30 477 l1 192 23 -5 c95 -20 245 -24 327 -9 19 4 45 9 58 11
l23 5 -4 -293 c-3 -299 1 -351 35 -400 10 -14 18 -29 18 -32 0 -30 143 -137
187 -140 13 0 23 -4 23 -7 0 -4 75 -6 168 -5 153 1 171 3 214 24 55 27 151
110 142 123 -3 5 -1 9 4 9 5 0 19 23 33 52 l24 51 0 369 0 368 -31 31 c-25 25
-40 31 -74 32 -36 1 -47 -4 -71 -31 l-29 -32 0 152 0 153 30 45 c149 220 207
514 154 770 -16 76 -29 120 -37 120 -4 0 -6 4 -2 10 3 5 2 17 -4 27 -5 10 -30
62 -56 116 -27 54 -56 103 -65 110 -14 10 -18 31 -19 119 l-2 108 31 -31 c27
-28 36 -31 74 -27 69 8 103 52 101 130 -1 34 1 37 25 34 14 -2 32 -6 40 -9 35
-14 154 -37 227 -44 186 -17 353 0 533 54 90 27 270 107 281 124 3 6 8 9 10 7
5 -4 135 83 174 117 103 89 186 182 197 221 3 13 6 304 6 646 0 520 -2 628
-14 654 -19 39 -152 177 -229 235 -417 316 -971 367 -1428 131 -311 -159 -543
-430 -631 -735 -42 -144 -46 -225 -40 -768 l5 -508 -28 4 c-15 2 -28 4 -28 5
0 5 -73 11 -145 12 -87 1 -206 -8 -221 -18 -9 -5 -10 47 -13 706 -2 333 -5
408 -20 479 -81 390 -377 723 -781 880 -55 22 -134 46 -175 55 -41 9 -86 19
-100 23 -14 3 -95 7 -180 9 -124 2 -176 -1 -260 -17z"/>
</g>
</svg>
